<?xml version="1.0" standalone="no"?>
<!DOCTYPE svg PUBLIC "-//W3C//DTD SVG 20010904//EN"
 "http://www.w3.org/TR/2001/REC-SVG-20010904/DTD/svg10.dtd">
<svg version="1.0" xmlns="http://www.w3.org/2000/svg"
 width="70.000000pt" height="70.000000pt" viewBox="0 0 70.000000 70.000000"
 preserveAspectRatio="xMidYMid meet">
<metadata>
Created by potrace 1.11, written by Peter Selinger 2001-2013
</metadata>
<g transform="translate(0.000000,70.000000) scale(0.100000,-0.100000)"
fill="#000000" stroke="none">
<path d="M340 633 c-18 -7 -65 -43 -57 -43 11 0 -161 -292 -175 -298 -5 -2 -8
-10 -8 -18 0 -8 -5 -14 -11 -14 -5 0 -8 -4 -5 -9 3 -5 -1 -14 -9 -21 -8 -7
-12 -16 -9 -21 3 -5 1 -9 -4 -9 -6 0 -17 -21 -26 -47 -16 -45 -15 -48 4 -68
20 -19 33 -20 298 -21 352 -1 354 0 323 104 -6 24 -20 51 -29 60 -9 10 -23 30
-31 45 -8 15 -18 27 -23 27 -4 0 -8 7 -8 15 0 15 -91 166 -122 201 -10 11 -18
28 -18 37 0 9 -4 17 -10 17 -5 0 -10 7 -10 16 0 9 -10 24 -22 35 -25 20 -26
20 -48 12z m35 -91 c-3 -3 3 -14 12 -25 17 -19 17 -20 -4 -8 -31 16 -56 5 -41
-19 11 -17 13 -17 24 -2 10 14 15 12 40 -14 16 -16 32 -28 36 -27 4 2 5 -6 3
-17 -2 -11 1 -20 7 -20 5 0 8 -7 5 -15 -4 -8 -2 -17 4 -20 5 -4 7 -10 4 -15
-3 -4 5 -10 17 -13 12 -4 19 -9 15 -13 -4 -4 -2 -13 5 -21 15 -18 4 -27 -19
-15 -10 5 -30 8 -45 7 -20 -1 -25 2 -21 14 3 9 11 21 17 26 16 14 14 48 -4 62
-12 10 -12 12 -1 13 8 0 12 3 8 6 -3 3 -12 2 -19 -2 -29 -18 -44 -11 -39 18 0
4 -6 5 -15 1 -13 -5 -13 -8 -2 -15 9 -7 8 -8 -6 -4 -11 4 -23 1 -27 -6 -6 -9
-11 -9 -22 0 -12 10 -16 9 -20 -3 -4 -8 -13 -12 -22 -9 -11 5 -13 10 -5 19 5
6 6 16 2 21 -4 4 1 2 11 -5 16 -13 18 -12 13 11 -5 27 39 93 55 82 6 -3 8 6 5
21 -5 27 -5 27 15 10 10 -10 17 -20 14 -23z m-5 -36 c0 -3 -4 -8 -10 -11 -5
-3 -10 -1 -10 4 0 6 5 11 10 11 6 0 10 -2 10 -4z m-116 -164 c-2 -27 0 -31 10
-23 9 8 13 7 13 -3 0 -8 -7 -13 -16 -11 -9 1 -21 -1 -26 -5 -6 -5 -19 -2 -29
6 -11 8 -14 14 -8 14 7 0 12 6 12 14 0 8 7 17 16 20 8 3 13 10 10 14 -3 5 1 9
8 9 9 0 12 -11 10 -35z m110 8 c-6 -6 -10 -2 -11 12 -2 16 1 18 10 9 7 -7 8
-14 1 -21z m-170 -72 c-11 -18 -12 -48 -2 -54 4 -3 6 -9 3 -13 -2 -5 7 -18 20
-31 19 -18 22 -26 13 -37 -8 -11 -7 -12 6 -7 9 3 16 1 16 -4 0 -7 -22 -10 -52
-10 -54 1 -82 13 -72 29 3 5 0 9 -5 9 -14 0 -14 -13 1 -28 6 -6 8 -15 3 -19
-4 -5 -10 -2 -12 5 -3 6 -9 10 -14 6 -10 -6 -12 7 -3 30 3 9 16 16 28 16 15 0
17 3 7 9 -11 7 -10 13 3 33 9 14 13 28 9 32 -5 4 -1 6 7 4 9 -2 14 4 14 14 -1
10 2 15 7 12 5 -3 12 2 15 11 4 9 9 14 11 11 3 -3 1 -11 -3 -18z m167 -15 c13
-17 13 -17 -6 -3 -11 8 -22 16 -24 17 -2 2 0 3 6 3 6 0 17 -8 24 -17z m169 6
c0 -7 8 -18 18 -25 11 -9 13 -13 4 -14 -7 0 -10 -4 -7 -10 3 -5 1 -10 -5 -10
-7 0 -10 6 -7 13 3 8 0 14 -7 14 -6 0 -12 -8 -12 -17 0 -19 24 -23 44 -7 8 7
12 5 12 -6 0 -8 5 -17 12 -19 6 -2 -7 -4 -30 -4 -23 1 -43 3 -43 6 -6 22 -5
51 2 56 4 2 6 11 2 19 -3 8 0 15 6 15 6 0 11 -5 11 -11z m-254 -41 c10 -12 14
-18 7 -15 -6 4 -13 4 -16 0 -2 -5 -3 -3 -1 3 1 6 -3 17 -9 23 -6 6 -9 11 -6
11 3 0 14 -10 25 -22z m167 1 c4 -3 2 -11 -5 -17 -10 -8 -13 -5 -14 15 -1 13
1 21 5 16 3 -4 10 -10 14 -14z m-101 -51 c-18 -18 -15 -33 3 -18 13 11 18 10
30 -6 8 -10 15 -22 15 -26 0 -9 -30 -6 -47 5 -7 5 -13 4 -13 -1 0 -5 -7 -9
-16 -9 -15 0 -15 1 0 12 8 7 13 15 9 18 -6 7 15 37 25 37 3 0 1 -5 -6 -12z
m172 -10 c8 -13 13 -16 10 -7 -4 12 1 16 23 14 49 -3 51 -4 46 -27 -3 -17 -2
-19 5 -10 8 11 10 11 15 0 4 -11 -5 -14 -37 -15 -22 -1 -52 -4 -65 -7 -19 -4
-22 -3 -13 6 15 15 15 28 1 28 -5 0 -8 -4 -5 -9 3 -5 -1 -12 -10 -15 -26 -10
-34 -7 -34 14 0 11 5 20 11 20 5 0 8 -4 4 -9 -3 -5 0 -13 7 -17 7 -4 10 -3 5
1 -4 5 1 17 10 27 16 18 16 18 -2 12 -13 -5 -16 -4 -11 4 11 18 22 15 40 -10z
m-227 -44 c-3 -3 -12 -4 -19 -1 -8 3 -5 6 6 6 11 1 17 -2 13 -5z"/>
<path d="M310 500 c-12 -16 -17 -30 -11 -30 6 0 11 5 11 11 0 8 6 7 18 -2 15
-13 16 -12 3 4 -11 14 -11 20 -1 32 7 8 10 15 7 15 -3 0 -15 -13 -27 -30z"/>
<path d="M393 452 c0 -12 5 -22 9 -22 11 0 10 12 -2 30 -7 12 -9 10 -7 -8z"/>
<path d="M308 453 c6 -2 9 -10 6 -15 -4 -7 -2 -8 4 -4 18 11 14 26 -5 25 -11
0 -13 -3 -5 -6z"/>
<path d="M451 342 c-1 -7 -5 -10 -11 -7 -5 3 -10 0 -10 -9 0 -8 7 -13 18 -11
9 1 26 -2 37 -7 19 -9 19 -8 2 5 -10 8 -14 17 -10 19 4 3 3 3 -4 2 -6 -2 -14
2 -17 9 -3 9 -5 8 -5 -1z"/>
<path d="M226 336 c-10 -15 -12 -27 -6 -31 9 -6 14 1 11 18 0 4 3 7 7 7 5 0 9
7 9 15 0 20 -2 19 -21 -9z"/>
<path d="M162 238 c-18 -18 -15 -27 7 -25 14 1 17 5 11 13 -6 6 -7 14 -3 17 3
4 4 7 2 7 -3 0 -10 -5 -17 -12z"/>
<path d="M143 185 c7 -7 15 -11 18 -9 4 2 10 -3 13 -12 4 -9 9 -14 13 -11 3 4
0 13 -7 22 -7 8 -8 15 -2 15 5 0 16 -7 23 -16 11 -14 10 -18 -6 -30 -10 -8
-15 -14 -9 -14 5 0 17 7 26 14 17 12 17 14 -3 32 -24 22 -85 30 -66 9z"/>
<path d="M345 150 c-3 -5 -5 -10 -3 -11 33 -8 38 -7 27 7 -14 17 -16 17 -24 4z"/>
<path d="M544 159 c1 -7 10 -13 19 -15 9 -1 15 2 11 7 -3 5 -9 7 -14 4 -4 -3
-11 0 -13 5 -3 6 -4 5 -3 -1z"/>
</g>
</svg>
